<?xml version="1.0" encoding="UTF-8" standalone="no"?>
<!DOCTYPE svg PUBLIC "-//W3C//DTD SVG 1.1//EN" "http://www.w3.org/Graphics/SVG/1.1/DTD/svg11.dtd">
<svg width="100%" height="100%" viewBox="0 0 640 512" version="1.1" xmlns="http://www.w3.org/2000/svg" xmlns:xlink="http://www.w3.org/1999/xlink" xml:space="preserve" xmlns:serif="http://www.serif.com/" style="fill-rule:evenodd;clip-rule:evenodd;stroke-linejoin:round;stroke-miterlimit:2;">
    <path d="M624,352L611.88,352C583.37,352 569.09,317.53 589.25,297.37L597.83,288.8C600.83,285.8 602.517,281.727 602.517,277.485C602.517,268.707 595.293,261.483 586.515,261.483C582.273,261.483 578.2,263.17 575.2,266.17L566.63,274.75C560.738,280.776 552.658,284.178 544.23,284.18C527.78,284.18 512,271.41 512,252.12L512,240C512,231.223 504.777,224 496,224C487.223,224 480,231.223 480,240L480,252.12C480,271.41 464.22,284.18 447.77,284.18C439.342,284.178 431.262,280.776 425.37,274.75L416.8,266.17C413.8,263.17 409.727,261.483 405.485,261.483C396.707,261.483 389.483,268.707 389.483,277.485C389.483,281.727 391.17,285.8 394.17,288.8L402.75,297.37C422.91,317.53 408.63,352 380.12,352L368,352C359.223,352 352,359.223 352,368C352,376.777 359.223,384 368,384L380.12,384C408.63,384 422.91,418.47 402.75,438.63L394.17,447.2C391.17,450.2 389.483,454.273 389.483,458.515C389.483,467.293 396.707,474.517 405.485,474.517C409.727,474.517 413.8,472.83 416.8,469.83L425.37,461.25C431.262,455.224 439.342,451.822 447.77,451.82C464.22,451.82 480,464.59 480,483.88L480,496C480,504.777 487.223,512 496,512C504.777,512 512,504.777 512,496L512,483.88C512,464.59 527.78,451.82 544.23,451.82C552.658,451.82 560.739,455.222 566.63,461.25L575.2,469.83C578.2,472.83 582.273,474.517 586.515,474.517C595.293,474.517 602.517,467.293 602.517,458.515C602.517,454.273 600.83,450.2 597.83,447.2L589.25,438.63C569.09,418.47 583.37,384 611.88,384L624,384C632.777,384 640,376.777 640,368C640,359.223 632.777,352 624,352ZM552.75,391.51C549.034,400.497 547.41,410.213 548,419.92C546.77,419.85 545.52,419.82 544.27,419.82C525.804,419.798 508.198,427.746 496,441.61C483.811,427.756 466.222,419.809 447.77,419.82C446.52,419.82 445.27,419.82 444.04,419.92C445.195,400.242 437.251,381.086 422.51,368C437.237,354.907 445.165,335.751 444,316.08C445.23,316.15 446.48,316.18 447.73,316.18C466.196,316.202 483.802,308.254 496,294.39C508.189,308.244 525.778,316.191 544.23,316.18C545.48,316.18 546.73,316.18 547.96,316.08C546.805,335.758 554.749,354.914 569.49,368C562.196,374.462 556.47,382.503 552.75,391.51ZM346.51,213.33L362.67,213.33C374.371,213.33 384,203.701 384,192C384,180.299 374.371,170.67 362.67,170.67L346.51,170.67C308.51,170.67 289.46,124.67 316.34,97.83L327.77,86.39C331.799,82.388 334.066,76.937 334.066,71.259C334.066,59.557 324.438,49.929 312.736,49.929C307.055,49.929 301.603,52.198 297.6,56.23L286.17,67.66C278.317,75.696 267.546,80.234 256.31,80.24C234.37,80.24 213.31,63.24 213.31,37.49L213.31,21.33C213.31,9.629 203.681,0 191.98,0C180.279,0 170.65,9.629 170.65,21.33L170.65,37.49C170.65,63.21 149.65,80.24 127.65,80.24C116.427,80.228 105.67,75.69 97.83,67.66L86.4,56.23C82.405,52.261 76.997,50.031 71.366,50.031C59.665,50.031 50.036,59.66 50.036,71.361C50.036,76.99 52.264,82.396 56.23,86.39L67.66,97.83C94.54,124.71 75.51,170.67 37.49,170.67L21.33,170.67C9.629,170.67 0,180.299 0,192C0,203.701 9.629,213.33 21.33,213.33L37.49,213.33C75.49,213.33 94.54,259.33 67.66,286.17L56.23,297.6C52.231,301.599 49.982,307.029 49.982,312.685C49.982,324.388 59.612,334.018 71.315,334.018C76.971,334.018 82.401,331.769 86.4,327.77L97.83,316.34C105.679,308.297 116.452,303.755 127.69,303.75C149.63,303.75 170.69,320.75 170.69,346.51L170.69,362.67C170.69,374.371 180.319,384 192.02,384C203.721,384 213.35,374.371 213.35,362.67L213.35,346.51C213.35,320.79 234.35,303.75 256.35,303.75C267.588,303.755 278.361,308.297 286.21,316.34L297.64,327.77C301.639,331.769 307.069,334.018 312.725,334.018C324.428,334.018 334.058,324.388 334.058,312.685C334.058,307.029 331.809,301.599 327.81,297.6L316.38,286.17C289.46,259.29 308.49,213.33 346.51,213.33ZM277.51,227.42C271.404,242.138 270.173,258.432 274,273.9C268.223,272.468 262.292,271.746 256.34,271.75C230.027,271.729 205.557,285.558 192,308.11C178.449,285.567 153.993,271.74 127.69,271.75C121.728,271.744 115.787,272.466 110,273.9C117.767,242.19 103.941,208.886 76,192C103.939,175.111 117.764,141.81 110,110.1C115.777,111.532 121.708,112.254 127.66,112.25C153.97,112.257 178.433,98.432 192,75.89C205.561,98.423 230.011,112.247 256.31,112.25C262.272,112.256 268.213,111.534 274,110.1C266.236,141.81 280.061,175.111 308,192C294.308,200.232 283.619,212.653 277.52,227.42L277.51,227.42ZM160,128C142.445,128 128,142.445 128,160C128,177.555 142.445,192 160,192C177.555,192 192,177.555 192,160C192,142.445 177.555,128 160,128ZM224,208C215.223,208 208,215.223 208,224C208,232.777 215.223,240 224,240C232.777,240 240,232.777 240,224C240,215.223 232.777,208 224,208ZM480,336C471.223,336 464,343.223 464,352C464,360.777 471.223,368 480,368C488.777,368 496,360.777 496,352C496,343.223 488.777,336 480,336Z" style="fill:rgb(129,205,179);fill-opacity:0.09;fill-rule:nonzero;"/>
</svg>
