<svg id="Vrstva_1" data-name="Vrstva 1" xmlns="http://www.w3.org/2000/svg" xmlns:xlink="http://www.w3.org/1999/xlink" viewBox="0 0 281.6 52.06"><defs><style>.cls-1{fill:none;}.cls-2{clip-path:url(#clip-path);}.cls-3{fill:#070d3c;}.cls-4{fill:#a8a8a8;}.cls-5{fill:#fff;}</style><clipPath id="clip-path" transform="translate(-281.07 -272.14)"><rect class="cls-1" x="281.07" y="272.14" width="281.6" height="52.06"/></clipPath></defs><title>advokacie-logo</title><g class="cls-2"><path class="cls-3" d="M381.69,288.65l-2.63-7.73c-.6-1.75-1-3.35-1.4-4.9h-.08c-.4,1.59-.84,3.23-1.35,4.86l-2.63,7.77Zm-8.81,2.71-2.79,8.45H366.5l9.13-26.86h4.18L389,299.81h-3.7l-2.87-8.45Z" transform="translate(-281.07 -272.14)"/><path class="cls-3" d="M396.39,297.06a21.91,21.91,0,0,0,3.51.2c7.41,0,11.44-4.14,11.44-11.4,0-6.34-3.55-10.36-10.88-10.36a19.5,19.5,0,0,0-4.06.36Zm-3.47-23.75a49.73,49.73,0,0,1,7.37-.56c5,0,8.53,1.15,10.88,3.35s3.79,5.3,3.79,9.64-1.36,8-3.87,10.44-6.65,3.87-11.87,3.87a55.45,55.45,0,0,1-6.3-.32Z" transform="translate(-281.07 -272.14)"/><path class="cls-3" d="M425.36,299.81l-8.77-26.86h3.75l4.18,13.24c1.15,3.62,2.15,6.89,2.87,10h.08c.76-3.11,1.87-6.5,3.07-10l4.55-13.27h3.7l-9.6,26.86Z" transform="translate(-281.07 -272.14)"/><path class="cls-3" d="M443.8,286.54c0,5.74,3.11,10.88,8.57,10.88s8.6-5.06,8.6-11.16c0-5.34-2.79-10.92-8.56-10.92s-8.61,5.3-8.61,11.2m20.84-.44c0,9.25-5.62,14.15-12.48,14.15-7.09,0-12.07-5.5-12.07-13.63,0-8.53,5.3-14.11,12.47-14.11,7.33,0,12.08,5.62,12.08,13.59" transform="translate(-281.07 -272.14)"/><path class="cls-3" d="M469.15,272.95h3.46v13h.12c.72-1,1.43-2,2.11-2.87l8.21-10.09h4.3l-9.73,11.4,10.48,15.46H484l-8.85-13.19-2.55,2.95v10.24h-3.46Z" transform="translate(-281.07 -272.14)"/><path class="cls-3" d="M504.29,288.65l-2.63-7.73c-.59-1.75-1-3.35-1.39-4.9h-.08c-.4,1.59-.84,3.23-1.36,4.86l-2.63,7.77Zm-8.8,2.71-2.79,8.45h-3.59l9.13-26.86h4.18l9.17,26.86h-3.71L505,291.36Z" transform="translate(-281.07 -272.14)"/><path class="cls-3" d="M533.7,298.94a17.12,17.12,0,0,1-7.09,1.32c-7.57,0-13.27-4.83-13.27-13.63,0-8.41,5.7-14.11,14-14.11a14.39,14.39,0,0,1,6.38,1.2l-.84,2.83a12.64,12.64,0,0,0-5.42-1.11c-6.29,0-10.48,4-10.48,11.08,0,6.58,3.78,10.8,10.32,10.8a13.88,13.88,0,0,0,5.66-1.11Z" transform="translate(-281.07 -272.14)"/><rect class="cls-3" x="256.97" y="0.81" width="3.47" height="26.86"/><polygon class="cls-3" points="280.4 15.07 269.96 15.07 269.96 24.76 281.6 24.76 281.6 27.67 266.49 27.67 266.49 0.81 281 0.81 281 3.72 269.96 3.72 269.96 12.21 280.4 12.21 280.4 15.07"/><path class="cls-4" d="M368.46,316.17a6.73,6.73,0,0,0,1.62.15c2.36,0,3.8-1.14,3.8-3.24s-1.42-3-3.57-3a8.23,8.23,0,0,0-1.85.16Zm-2-7.31a22.61,22.61,0,0,1,3.76-.29,6.24,6.24,0,0,1,4.25,1.26,4.07,4.07,0,0,1,1.33,3.17,4.45,4.45,0,0,1-1.17,3.24A6.27,6.27,0,0,1,370,317.9a6.54,6.54,0,0,1-1.57-.14v6.07h-2Z" transform="translate(-281.07 -272.14)"/><path class="cls-4" d="M380.42,315.79h2c2.09,0,3.42-1.15,3.42-2.88,0-2-1.41-2.81-3.48-2.83a8,8,0,0,0-1.93.18Zm-2-6.91a20.52,20.52,0,0,1,3.76-.31c2.09,0,3.44.38,4.39,1.24a3.78,3.78,0,0,1,1.19,2.88,4,4,0,0,1-2.86,3.87v.07c1.17.4,1.87,1.48,2.23,3.06a23.88,23.88,0,0,0,1.17,4.16h-2a20.43,20.43,0,0,1-1-3.62c-.45-2.09-1.26-2.88-3-2.95h-1.85v6.57h-2Z" transform="translate(-281.07 -272.14)"/><path class="cls-4" d="M398.1,317.55l-1.49-4.37c-.34-1-.56-1.89-.79-2.77h0c-.23.9-.47,1.82-.76,2.75l-1.49,4.39Zm-5,1.53-1.57,4.77h-2l5.15-15.16H397l5.17,15.16h-2.09l-1.62-4.77Z" transform="translate(-281.07 -272.14)"/><polygon class="cls-4" points="125.32 36.54 125.32 42.88 132.65 42.88 132.65 36.54 134.63 36.54 134.63 51.7 132.65 51.7 132.65 44.59 125.32 44.59 125.32 51.7 123.36 51.7 123.36 36.54 125.32 36.54"/><path class="cls-4" d="M426.51,317.55,425,313.18c-.34-1-.56-1.89-.79-2.77h0c-.23.9-.47,1.82-.76,2.75l-1.48,4.39Zm-5,1.53L420,323.84h-2l5.15-15.16h2.36l5.17,15.16h-2.09l-1.62-4.77Z" transform="translate(-281.07 -272.14)"/><rect class="cls-3" width="66.19" height="52.06"/><path class="cls-5" d="M306.36,296.16l-6.4-17-6.63,17ZM301.86,276l13,33.1h-3.38l-4-10.29H292.35l-4,10.29H285L298.33,276Z" transform="translate(-281.07 -272.14)"/><rect class="cls-4" x="4" y="39.76" width="29.74" height="2.78"/><rect class="cls-4" x="3.97" y="45.33" width="29.74" height="2.78"/><rect class="cls-4" x="37.71" y="3.88" width="24.62" height="2.79"/><rect class="cls-4" x="37.68" y="9.45" width="24.62" height="2.79"/><path class="cls-5" d="M332.79,303.38a8.15,8.15,0,0,0,5.33-1.67,7.39,7.39,0,0,0,0-10.2,8.16,8.16,0,0,0-5.33-1.67H321.94v13.54Zm.7-16.23a12.33,12.33,0,0,1,4,.63,8.5,8.5,0,0,1,3.11,1.86,8.21,8.21,0,0,1,2,3,11.8,11.8,0,0,1,0,8,8.23,8.23,0,0,1-2,3,8.48,8.48,0,0,1-3.11,1.86,12.2,12.2,0,0,1-4,.63H321.94v14.2h-3.16V287.15Z" transform="translate(-281.07 -272.14)"/></g></svg>